<svg width="537" height="246" viewBox="0 0 537 246" fill="none" xmlns="http://www.w3.org/2000/svg">
<g clip-path="url(#clip0_226_63)">
<g filter="url(#filter0_d_226_63)">
<path d="M530.147 130V64.0001L354.427 94.8816C355.895 102.499 356.503 110.415 356.147 118.5C355.483 133.582 351.762 147.706 345.575 160.153L530.147 130Z" fill="white"/>
<path d="M332.427 99.5001V163L345.575 160.153C351.762 147.706 355.483 133.582 356.147 118.5C356.503 110.415 355.895 102.499 354.427 94.8816L332.427 99.5001Z" fill="white"/>
<path d="M1.42676 95.5001L2.42676 163L170.427 133C168.281 124.124 166.66 116.018 167.427 106.5C168.62 91.6837 173.242 78.0789 180.465 66.203L1.42676 95.5001Z" fill="white"/>
<path d="M193.927 130V64.0001L180.465 66.203C173.242 78.0789 168.62 91.6837 167.427 106.5C166.66 116.018 168.281 124.124 170.427 133L193.927 130Z" fill="white"/>
<path d="M193.927 64.0001V130L170.427 133C180.294 173.814 217.665 206.918 261.427 210.5C300.717 213.717 329.417 192.656 345.575 160.153L332.427 163V99.5001L354.427 94.8816C345.597 49.0751 309.936 14.0693 261.427 18.0001C227.387 20.7583 197.059 38.9176 180.465 66.203L193.927 64.0001Z" fill="white"/>
<path opacity="0.96" fill-rule="evenodd" clip-rule="evenodd" d="M256.254 0C260.309 0 264.365 0 268.42 0C268.824 0.293743 269.282 0.555359 269.793 0.784848C271.363 3.66262 272.932 6.54041 274.502 9.41818C275.086 10.3934 275.805 11.2437 276.66 11.9689C278.346 12.1155 279.982 12.4425 281.566 12.95C284.875 10.427 287.949 7.61463 290.788 4.51288C291.403 4.09071 292.057 3.76369 292.75 3.53182C296.763 4.62872 300.622 6.06762 304.327 7.84848C304.985 11.9284 305.77 15.9835 306.681 20.0136C308.617 21.9304 310.906 23.0423 313.549 23.3492C317.12 21.3338 320.848 19.6987 324.733 18.4439C328.385 20.0764 331.655 22.3002 334.543 25.1151C334.747 29.4466 334.289 33.6979 333.17 37.8689C334.58 40.3914 336.542 42.2884 339.056 43.5591C343.221 42.786 347.407 42.3284 351.614 42.1856C354.14 44.9514 356.429 47.8946 358.481 51.0151C358.711 52.097 358.579 53.1432 358.089 54.1545C356.728 56.998 355.486 59.8757 354.361 62.7878C362.649 61.777 370.89 60.469 379.084 58.8636C379.214 58.9943 379.345 59.1254 379.476 59.256C369.963 65.6882 360.283 71.9015 350.437 77.8962C350.044 78.1579 349.652 78.1579 349.259 77.8962C335.108 47.3962 311.562 28.6908 278.623 21.7795C240.159 16.9827 209.354 29.9981 186.206 60.8257C185.81 61.4242 185.614 62.0783 185.618 62.7878C186.327 62.7914 186.981 62.5952 187.58 62.1992C195.212 52.6044 203.976 44.2329 213.872 37.0841C239.229 22.1557 265.914 19.2779 293.927 28.4507C314.629 36.4646 330.653 50.0031 341.999 69.0666C343.851 72.5062 345.485 76.038 346.905 79.6621C346.208 80.6836 345.293 81.5339 344.158 82.2128C343.411 82.7234 342.627 82.9851 341.803 82.9977C328.119 52.0107 304.442 34.221 270.774 29.628C240.171 27.7876 215.252 38.7101 196.017 62.3954C195.821 85.4174 195.755 108.439 195.821 131.462C130.924 142.496 66.0426 153.615 1.17728 164.818C0.905571 164.612 0.709358 164.35 0.588639 164.033C0.521987 160.04 0.325774 156.116 0 152.261C0 133.032 0 113.803 0 94.5742C57.3017 84.7404 114.596 74.8647 171.883 64.9462C172.296 64.4015 172.361 63.8129 172.079 63.1803C170.485 59.6006 168.785 56.0688 166.977 52.5848C166.716 52.1924 166.716 51.8 166.977 51.4075C169.311 47.9224 171.927 44.6524 174.826 41.5969C178.79 42.3037 182.78 42.9579 186.795 43.5591C189.806 42.2539 191.637 40.03 192.289 36.8879C191.773 33.082 191.315 29.2885 190.915 25.5076C193.984 22.6312 197.32 20.1458 200.922 18.0515C204.808 19.6017 208.602 21.3676 212.303 23.3492C214.945 23.0423 217.234 21.9304 219.17 20.0136C220.096 15.8407 220.947 11.6548 221.721 7.45606C225.399 5.83731 229.193 4.52924 233.101 3.53182C233.665 3.61773 234.189 3.81394 234.671 4.12045C237.561 7.14133 240.569 10.0191 243.697 12.7538C245.501 12.5018 247.333 12.2402 249.191 11.9689C249.82 11.4351 250.409 10.8465 250.957 10.203C252.828 6.85318 254.594 3.45218 256.254 0ZM179.339 74.5606C181.649 74.1065 183.545 74.7607 185.029 76.5227C185.225 91.6958 185.291 106.87 185.225 122.044C183.544 122.356 181.843 122.487 180.124 122.436C180.124 108.309 180.124 94.1818 180.124 80.0545C178.398 80.1703 176.697 80.432 175.022 80.8393C174.7 81.9958 174.504 83.1731 174.433 84.3712C174.303 96.7981 174.172 109.225 174.041 121.651C173.943 122.41 173.746 123.129 173.452 123.81C171.915 124.263 170.345 124.46 168.743 124.398C168.743 108.44 168.743 92.4814 168.743 76.5227C172.362 76.073 175.894 75.4192 179.339 74.5606ZM156.186 78.4848C158.148 78.4848 160.11 78.4848 162.072 78.4848C162.371 94.0527 162.371 109.619 162.072 125.183C161.518 125.696 160.864 126.023 160.11 126.164C155.835 127.204 151.518 127.858 147.16 128.126C146.914 127.832 146.718 127.505 146.571 127.145C146.441 125.968 146.309 124.791 146.179 123.614C145.917 109.748 145.917 95.8821 146.179 82.0166C146.637 81.5587 147.094 81.1011 147.552 80.6431C150.449 79.7939 153.326 79.0742 156.186 78.4848ZM135.779 82.0166C137.065 81.9052 138.308 82.0359 139.508 82.409C140.061 90.905 140.192 99.4077 139.9 107.917C138.977 108.978 138.258 110.155 137.742 111.448C138.098 112.356 138.752 113.01 139.704 113.411C140.238 118.783 140.173 124.146 139.508 129.5C138.087 130.16 136.582 130.422 134.995 130.285C134.632 125.195 134.502 120.094 134.602 114.98C132.844 114.889 131.144 115.151 129.501 115.765C129.244 121.01 128.851 126.242 128.323 131.462C126.939 132.02 125.5 132.281 124.007 132.247C123.628 116.295 123.497 100.337 123.614 84.3712C127.736 83.6774 131.791 82.8925 135.779 82.0166ZM114.588 85.5484C115.504 85.5484 116.42 85.5484 117.335 85.5484C117.401 87.1236 117.335 88.6933 117.139 90.2575C115.451 90.9199 113.685 91.3124 111.841 91.4348C111.895 105.826 111.765 120.215 111.449 134.601C109.898 134.904 108.328 135.035 106.74 134.994C106.43 120.869 106.3 106.742 106.348 92.6121C104.657 92.9527 102.957 93.0178 101.246 92.8083C100.723 91.3693 100.723 89.9306 101.246 88.4916C105.733 87.4631 110.181 86.482 114.588 85.5484ZM90.258 89.8651C91.5727 89.8003 92.8806 89.8659 94.1823 90.0613C94.4535 90.48 94.6497 90.938 94.7709 91.4348C95.0327 99.545 95.0327 107.655 94.7709 115.765C93.0768 116.412 91.3109 116.673 89.4732 116.55C89.5387 110.401 89.4732 104.253 89.277 98.106C89.204 97.1642 89.0078 96.2483 88.6883 95.359C86.9766 95.6718 85.3417 96.1953 83.783 96.9287C83.5099 109.227 83.575 121.524 83.9792 133.817C85.689 133.783 87.3894 133.652 89.0807 133.424C89.0741 129.787 89.3358 126.19 89.8656 122.633C91.5032 122.248 93.138 121.921 94.7709 121.651C95.1402 126.65 95.0091 131.621 94.3785 136.564C93.6721 137.277 92.8221 137.735 91.8277 137.937C88.0291 138.631 84.2355 139.351 80.4474 140.095C79.6229 140.044 79.0342 139.651 78.6815 138.918C77.9425 123.874 77.9425 108.831 78.6815 93.7893C78.7792 93.3483 78.9754 92.9558 79.2701 92.6121C82.8734 91.3595 86.5359 90.4439 90.258 89.8651ZM69.4594 93.3969C70.375 93.3969 71.2909 93.3969 72.2064 93.3969C72.2712 94.8418 72.206 96.2804 72.0102 97.7136C71.814 97.9098 71.6178 98.106 71.4216 98.3022C68.0451 99.0553 64.644 99.6439 61.2185 100.068C61.153 107.395 61.2185 114.72 61.4147 122.044C63.1174 121.447 64.8834 121.185 66.7125 121.259C66.7776 122.834 66.7121 124.404 66.5162 125.968C64.8873 126.339 63.252 126.731 61.6109 127.145C61.2193 130.667 61.0882 134.199 61.2185 137.741C64.744 137.24 68.2759 136.913 71.814 136.76C72.2543 138.098 72.3198 139.471 72.0102 140.88C66.831 142.365 61.5332 143.281 56.117 143.627C55.8258 127.67 55.6947 111.712 55.7245 95.7515C60.3736 95.0859 64.952 94.3011 69.4594 93.3969ZM34.5335 99.2833C35.8416 99.2833 37.1497 99.2833 38.4578 99.2833C38.4058 113.413 38.5366 127.54 38.8502 141.665C42.393 141.204 45.9249 140.681 49.4457 140.095C49.5623 141.77 49.4316 143.405 49.0533 145.001C43.8595 146.193 38.6271 147.174 33.3562 147.944C33.2908 134.208 33.3562 120.473 33.5524 106.739C33.5269 104.145 33.8539 101.66 34.5335 99.2833ZM24.7229 100.853C25.4948 100.759 26.2143 100.89 26.8812 101.245C27.0769 102.81 27.1424 104.379 27.0774 105.954C23.4148 106.609 19.7521 107.262 16.0895 107.917C16.3988 114.976 16.5297 122.04 16.4819 129.107C18.1566 129.224 19.7917 129.093 21.3872 128.715C21.583 130.411 21.6485 132.111 21.5834 133.817C19.7811 134.085 18.0152 134.478 16.2857 134.994C16.0896 138.523 16.0242 142.055 16.0895 145.589C19.5057 145.151 22.9068 144.627 26.2926 144.02C26.5225 144.102 26.7187 144.233 26.8812 144.412C28.0733 147.925 26.8307 149.691 23.1531 149.71C19.0046 150.597 14.8187 151.186 10.5955 151.476C10.5955 135.517 10.5955 119.559 10.5955 103.6C15.401 102.931 20.1101 102.015 24.7229 100.853Z" fill="#D9532B"/>
<path opacity="0.94" fill-rule="evenodd" clip-rule="evenodd" d="M260.571 50.2296C267.452 49.7791 273.011 52.2643 277.249 57.6856C280.949 62.534 283.893 67.8318 286.078 73.5788C291.415 73.0616 296.779 72.9309 302.168 73.1864C317.994 75.8592 323.292 84.8194 318.061 100.067C315.637 104.923 312.824 109.501 309.624 113.802C311.56 116.985 313.588 120.124 315.707 123.22C319.384 129.031 320.692 135.31 319.631 142.057C317.349 148.523 312.836 152.513 306.092 154.026C299.299 154.731 292.497 154.796 285.686 154.222C283.342 161.332 279.549 167.546 274.306 172.862C267.966 178.091 261.164 178.745 253.9 174.824C250.4 172.111 247.457 168.906 245.07 165.21C243.248 161.631 241.482 158.034 239.772 154.418C233.894 154.623 228.007 154.623 222.113 154.418C207.162 151.19 202.387 142.361 207.789 127.93C210.312 123.011 213.124 118.302 216.227 113.802C212.116 108.594 208.911 102.838 206.612 96.5356C203.73 84.9136 207.981 77.392 219.366 73.9712C225.83 72.7339 232.305 72.6688 238.791 73.775C239.134 73.6828 239.461 73.5517 239.772 73.3826C242.273 67.4633 245.478 61.9693 249.387 56.9008C252.455 53.5051 256.183 51.2817 260.571 50.2296ZM261.356 56.9008C259.858 57.4266 258.419 58.1463 257.039 59.0591C252.42 63.5492 248.888 68.7814 246.443 74.7561C251.881 76.896 257.375 78.9236 262.925 80.8387C268.231 79.1359 273.463 77.2389 278.622 75.1485C278.802 74.986 278.933 74.7898 279.015 74.5599C277.36 70.3331 275.202 66.4088 272.54 62.7872C269.746 59.0034 266.018 57.0413 261.356 56.9008ZM224.468 79.6614C228.53 79.681 232.585 79.8772 236.633 80.25C237.056 80.5145 237.318 80.9069 237.418 81.4273C236.207 86.7262 235.094 92.0239 234.082 97.3205C229.876 101.136 225.559 104.798 221.132 108.308C217.047 103.806 214.17 98.5743 212.499 92.6114C211.652 87.4365 213.549 83.7085 218.189 81.4273C220.262 80.5836 222.355 79.9949 224.468 79.6614ZM291.572 79.6614C295.634 79.7108 299.689 79.907 303.738 80.25C312.909 82.8306 315.59 88.5207 311.782 97.3205C310.04 101.469 307.62 105.131 304.523 108.308C301.064 105.57 297.663 102.757 294.319 99.8712C293.039 98.854 292.058 97.6112 291.376 96.1432C290.374 91.2449 289.393 86.3397 288.433 81.4273C288.466 80.9929 288.597 80.6005 288.825 80.25C289.821 80.177 290.736 79.9808 291.572 79.6614ZM244.481 82.0159C247.764 82.5653 250.903 83.5464 253.9 84.9591C250.106 87.2481 246.313 89.5375 242.519 91.8265C242.48 88.4474 243.134 85.1773 244.481 82.0159ZM279.407 82.0159C280.179 81.9221 280.899 82.0528 281.566 82.4083C282.717 85.3452 283.175 88.354 282.939 91.4341C279.212 89.3747 275.549 87.2163 271.951 84.9591C274.464 83.9278 276.95 82.9468 279.407 82.0159ZM262.533 88.6871C269.659 91.4647 276.33 95.0621 282.547 99.4788C283.266 100.198 283.986 100.918 284.705 101.637C285.154 105.786 285.351 109.972 285.294 114.195C285.351 118.417 285.154 122.603 284.705 126.752C277.847 131.589 270.587 135.775 262.925 139.31C255.428 135.758 248.233 131.703 241.342 127.145C241.047 126.801 240.851 126.408 240.753 125.967C239.868 117.567 239.999 109.195 241.146 100.852C247.974 96.2295 255.103 92.1746 262.533 88.6871ZM292.357 107.131C295.028 109.082 297.382 111.371 299.421 113.998C297.398 116.545 295.109 118.834 292.554 120.866C292.357 116.289 292.292 111.711 292.357 107.131ZM232.709 107.523C233.23 109.402 233.491 111.43 233.493 113.606C233.542 115.937 233.345 118.226 232.905 120.473C230.547 118.442 228.258 116.349 226.037 114.195C227.888 111.56 230.111 109.336 232.709 107.523ZM221.328 119.296C225.531 123.002 229.782 126.665 234.082 130.284C235.116 135.652 236.228 141.015 237.418 146.373C237.375 146.743 237.245 147.07 237.025 147.355C231.674 148.106 226.311 148.106 220.936 147.355C213.282 145.177 210.731 140.271 213.283 132.639C215.249 127.736 217.931 123.289 221.328 119.296ZM304.13 119.296C307.81 123.108 310.622 127.555 312.567 132.639C315.001 141.432 311.665 146.469 302.56 147.747C297.964 148.066 293.385 148 288.825 147.551C288.695 147.158 288.564 146.766 288.433 146.373C289.59 141.175 290.571 135.942 291.376 130.676C295.841 127.107 300.092 123.313 304.13 119.296ZM242.127 136.17C246.093 138.22 250.017 140.378 253.9 142.645C250.992 144.029 247.984 145.14 244.874 145.981C244.209 145.175 243.751 144.259 243.5 143.234C242.916 140.899 242.458 138.545 242.127 136.17ZM282.939 136.17C283.365 136.218 283.627 136.479 283.724 136.955C283.161 139.972 282.376 142.915 281.369 145.785C278.091 145.215 274.952 144.169 271.951 142.645C275.703 140.576 279.366 138.417 282.939 136.17ZM262.533 146.766C267.527 148.801 272.628 150.567 277.838 152.064C278.497 152.2 278.889 152.592 279.015 153.241C276.761 159.715 272.968 165.079 267.634 169.33C264.7 171.002 261.691 171.133 258.609 169.723C252.974 165.583 249.05 160.155 246.836 153.437C246.847 152.837 247.109 152.379 247.621 152.064C252.755 150.636 257.726 148.87 262.533 146.766Z" fill="#D9532B"/>
<path opacity="0.956" fill-rule="evenodd" clip-rule="evenodd" d="M49.4453 57.2935C50.1164 60.8822 50.5088 64.6102 50.6226 68.4775C50.3656 72.472 50.1038 76.4618 49.8377 80.4465C33.8 83.4901 17.7105 86.2371 1.56934 88.6874C1.97941 87.5552 2.76426 86.7048 3.92389 86.1366C19.1893 76.6105 34.3631 66.9961 49.4453 57.2935Z" fill="#D9532B"/>
<path opacity="0.952" fill-rule="evenodd" clip-rule="evenodd" d="M390.856 57.2918C391.247 57.2581 391.574 57.3891 391.837 57.6842C392.164 65.2745 392.098 72.8612 391.641 80.4448C375.826 83.2334 359.998 85.9804 344.157 88.6857C343.765 88.555 343.372 88.424 342.98 88.2933C343.618 87.7086 344.272 87.12 344.942 86.5274C360.405 76.9687 375.71 67.2233 390.856 57.2918Z" fill="#D9532B"/>
<path opacity="0.954" fill-rule="evenodd" clip-rule="evenodd" d="M536.837 61.2188C536.837 84.6335 536.837 108.048 536.837 131.463C475.741 141.885 414.656 152.35 353.574 162.857C354.742 166.635 356.246 170.297 358.087 173.844C358.476 174.608 358.607 175.393 358.48 176.199C356.624 179.715 354.335 182.92 351.612 185.813C347.042 185.348 342.464 184.955 337.877 184.636C336.009 186.241 334.439 188.072 333.168 190.13C334.179 194.197 334.637 198.318 334.542 202.491C332.106 204.924 329.425 207.082 326.497 208.966C325.958 209.31 325.37 209.506 324.731 209.555C320.676 207.855 316.621 206.154 312.566 204.454C310.605 205.139 308.708 205.99 306.876 207.004C306.018 211.562 304.972 216.075 303.736 220.543C299.837 222.346 295.781 223.458 291.571 223.878C288.432 221.001 285.292 218.123 282.153 215.245C280.181 215.29 278.219 215.551 276.266 216.03C275.537 216.641 274.948 217.361 274.501 218.188C272.73 221.469 270.964 224.739 269.203 227.999C265.148 227.999 261.093 227.999 257.038 227.999C256.774 227.698 256.447 227.436 256.057 227.214C254.146 223.326 251.987 219.598 249.581 216.03C247.611 215.82 245.715 215.362 243.891 214.657C240.699 217.456 237.624 220.4 234.669 223.486C234.067 223.848 233.413 224.044 232.707 224.075C229.097 223.133 225.565 221.956 222.112 220.543C220.922 216.422 219.941 212.236 219.168 207.985C217.29 205.963 215 204.851 212.301 204.65C208.9 206.219 205.499 207.789 202.098 209.359C200.952 209.575 199.906 209.314 198.958 208.574C196.101 206.785 193.419 204.757 190.914 202.491C191.434 198.19 191.827 193.873 192.091 189.541C191.013 187.677 189.639 186.041 187.971 184.636C183.273 185.045 178.564 185.307 173.843 185.421C171.202 182.492 168.848 179.353 166.78 176.003C167.847 173.344 169.024 170.728 170.311 168.154C169.117 167.734 167.874 167.537 166.583 167.566C160.108 168.098 153.633 168.622 147.158 169.135C146.766 169.005 146.373 168.874 145.981 168.743C155.828 162.086 165.835 155.676 176.002 149.514C180.347 158.341 185.58 166.582 191.699 174.237C217.447 202.352 249.037 212.359 286.47 204.257C309.262 197.802 327.313 184.852 340.624 165.407C339.839 165.146 339.055 165.146 338.27 165.407C312.386 198.803 278.769 210.707 237.416 201.118C209.583 192.382 189.961 174.592 178.552 147.748C180.137 146.564 181.838 145.582 183.654 144.805C194.088 168.385 211.355 184.801 235.454 194.054C271.158 204.375 301.702 196.069 327.086 169.135C327.87 168.089 328.655 167.043 329.44 165.996C329.507 142.881 329.703 119.793 330.029 96.7331C398.907 84.5562 467.841 72.7179 536.837 61.2188ZM524.28 73.7763C525.147 73.9816 525.736 74.5047 526.046 75.346C526.309 84.7642 526.309 94.1824 526.046 103.601C525.885 104.775 525.296 105.626 524.28 106.151C521.254 106.68 518.244 107.268 515.254 107.917C514.956 113.275 514.826 118.638 514.862 124.007C513.311 124.31 511.742 124.44 510.152 124.399C510.152 108.44 510.152 92.482 510.152 76.5233C514.968 75.9001 519.677 74.9846 524.28 73.7763ZM497.595 78.4854C499.529 78.3665 501.425 78.4976 503.285 78.8778C503.921 94.0411 504.05 109.215 503.677 124.399C502.63 125.71 501.256 126.429 499.557 126.557C495.55 127.475 491.497 127.933 487.392 127.931C487.325 112.626 487.392 97.3214 487.588 82.0172C487.71 81.5204 487.906 81.0625 488.177 80.6437C491.359 79.8769 494.499 79.1576 497.595 78.4854ZM478.758 81.6248C479.414 81.6248 480.065 81.6248 480.72 81.6248C481.219 97.5815 481.219 113.54 480.72 129.501C479.237 130.019 477.734 130.412 476.208 130.678C475.729 125.326 475.533 119.962 475.619 114.588C474.191 114.816 472.75 115.012 471.302 115.177C470.977 115.504 470.647 115.831 470.321 116.158C470.306 121.297 470.047 126.398 469.536 131.463C468.014 132.275 466.444 132.406 464.827 131.855C464.564 116.42 464.564 100.984 464.827 85.549C464.953 84.9365 465.279 84.4785 465.808 84.1756C467.111 83.9801 468.418 83.9146 469.733 83.9793C469.878 92.6123 470.011 101.246 470.125 109.879C471.958 109.749 473.786 109.618 475.619 109.487C475.509 101.109 475.643 92.7379 476.011 84.3718C476.141 83.7176 476.274 83.0638 476.404 82.4096C477.251 82.1938 478.036 81.9321 478.758 81.6248ZM454.036 85.9415C455.221 85.8767 456.398 85.9422 457.567 86.1377C457.764 86.3339 457.96 86.5301 458.156 86.7263C458.921 93.2657 458.921 99.8062 458.156 106.348C456.586 106.97 454.95 107.362 453.251 107.525C453.317 102.552 453.251 97.5815 453.054 92.6127C452.591 92.148 452.003 91.8863 451.289 91.8278C450.115 92.0107 448.938 92.1414 447.757 92.2202C447.596 99.4251 447.596 106.619 447.757 113.804C450.598 113.641 453.408 113.249 456.194 112.626C456.904 112.624 457.493 112.885 457.96 113.411C458.941 119.669 459.004 125.948 458.156 132.247C457.96 132.967 457.501 133.425 456.783 133.621C452.144 134.874 447.435 135.528 442.655 135.583C442.369 135.034 442.172 134.445 442.067 133.817C441.804 131.463 441.804 129.108 442.067 126.754C442.212 126.394 442.408 126.067 442.655 125.772C444.076 125.338 445.516 125.208 446.972 125.38C447.553 126.68 447.878 128.053 447.953 129.501C452.744 130.592 454.51 128.695 453.251 123.81C453.247 122.078 453.113 120.377 452.858 118.709C450.103 118.852 447.356 119.18 444.617 119.69C443.962 119.624 443.311 119.559 442.655 119.494C442.408 119.199 442.212 118.872 442.067 118.513C441.804 108.833 441.804 99.1532 442.067 89.4733C443.036 88.6288 444.146 88.0401 445.402 87.7074C448.341 87.1541 451.218 86.5654 454.036 85.9415ZM432.452 89.4733C433.629 89.4733 434.807 89.4733 435.984 89.4733C436.051 98.2385 435.984 107.002 435.788 115.766C434.909 116.776 434.187 117.888 433.629 119.101C434.081 120.077 434.803 120.797 435.788 121.26C436.051 126.361 436.051 131.463 435.788 136.564C435.643 136.924 435.446 137.251 435.199 137.545C433.653 137.944 432.083 138.14 430.49 138.134C430.572 132.891 430.376 127.658 429.901 122.437C428.288 122.769 426.656 123.031 424.996 123.222C424.698 128.58 424.568 133.943 424.604 139.311C422.912 139.615 421.209 139.877 419.502 140.096C419.471 124.397 419.408 108.7 419.306 93.0051C419.502 92.5471 419.828 92.2202 420.287 92.024C421.704 91.6567 423.144 91.4605 424.604 91.4354C424.451 100.08 424.647 108.714 425.192 117.335C426.683 117.734 428.186 117.669 429.705 117.139C430.419 108.53 430.745 99.8313 430.686 91.043C431.043 90.2154 431.632 89.6922 432.452 89.4733ZM410.084 93.3975C412.733 93.1024 413.843 94.2797 413.419 96.9293C413.682 104.516 413.682 112.103 413.419 119.69C410.594 121.688 410.594 123.65 413.419 125.576C413.682 130.547 413.682 135.518 413.419 140.488C411.814 141.478 410.048 142.002 408.122 142.058C408.122 136.826 408.122 131.593 408.122 126.361C406.301 126.35 404.535 126.612 402.824 127.146C402.329 132.226 402.07 137.327 402.039 142.451C401.843 142.908 401.517 143.235 401.058 143.432C399.743 143.61 398.433 143.806 397.134 144.02C397.067 128.061 397.134 112.102 397.33 96.1445C401.576 95.0783 405.83 94.1623 410.084 93.3975ZM386.931 97.3218C389.749 96.8638 390.992 98.0411 390.659 100.854C391.033 115.385 390.903 129.904 390.266 144.413C388.838 145.327 387.269 145.85 385.557 145.982C382.249 146.763 378.913 147.221 375.55 147.356C375.354 147.16 375.158 146.963 374.962 146.767C374.183 131.332 374.183 115.897 374.962 100.461C375.421 99.9145 376.01 99.5872 376.728 99.4801C380.175 98.7258 383.576 98.0061 386.931 97.3218ZM366.524 100.854C366.917 100.854 367.309 100.854 367.702 100.854C368.118 116.155 368.184 131.46 367.898 146.767C366.409 148.853 364.381 149.965 361.815 150.103C359.514 150.694 357.225 150.76 354.948 150.299C351.162 152.096 347.172 152.947 342.979 152.85C342.151 152.402 341.432 151.813 340.821 151.084C340.498 136.163 340.564 121.251 341.017 106.348C341.142 105.897 341.403 105.57 341.802 105.366C343.191 104.874 344.565 104.808 345.922 105.17C346.348 119.163 346.61 133.159 346.707 147.16C348.332 147.476 349.902 147.215 351.416 146.375C351.489 132.503 351.685 118.637 352.005 104.778C352.087 104.192 352.348 103.734 352.79 103.404C354.208 103.037 355.646 102.841 357.106 102.816C357.377 116.941 357.574 131.068 357.695 145.197C357.979 145.417 358.306 145.548 358.676 145.59C360.1 145.227 361.539 144.965 362.993 144.805C362.993 130.416 362.993 116.027 362.993 101.638C364.259 101.569 365.436 101.308 366.524 100.854Z" fill="#D9532B"/>
<path opacity="0.898" fill-rule="evenodd" clip-rule="evenodd" d="M518.787 80.0527C519.988 80.3106 520.576 81.0954 520.553 82.4073C520.749 88.8156 520.816 95.225 520.749 101.636C519.297 101.796 517.857 102.058 516.432 102.421C516.064 102.379 515.734 102.248 515.451 102.028C514.8 94.9633 514.867 87.8996 515.648 80.8376C516.75 80.61 517.798 80.3486 518.787 80.0527Z" fill="#D9532B"/>
<path opacity="0.929" fill-rule="evenodd" clip-rule="evenodd" d="M495.241 83.978C496.156 83.978 497.074 83.978 497.988 83.978C497.988 96.5356 497.988 109.093 497.988 121.651C496.305 121.963 494.606 122.093 492.887 122.043C492.451 109.753 492.385 97.457 492.691 85.1553C493.542 84.6722 494.39 84.2798 495.241 83.978Z" fill="#D9532B"/>
<path opacity="0.921" fill-rule="evenodd" clip-rule="evenodd" d="M152.262 84.3711C153.963 84.3711 155.663 84.3711 157.364 84.3711C157.429 96.6677 157.364 108.964 157.167 121.259C155.34 121.923 153.443 122.315 151.477 122.436C151.223 109.66 151.485 96.9718 152.262 84.3711Z" fill="#D9532B"/>
<path opacity="0.919" fill-rule="evenodd" clip-rule="evenodd" d="M133.033 87.5098C133.926 87.6102 134.384 88.1337 134.407 89.0795C134.7 95.8884 134.634 102.69 134.211 109.486C132.549 109.848 130.914 109.848 129.305 109.486C129.109 102.423 129.044 95.3594 129.109 88.2946C130.164 88.359 131.21 88.2934 132.248 88.0984C132.608 87.9893 132.869 87.7931 133.033 87.5098Z" fill="#D9532B"/>
<path opacity="0.894" fill-rule="evenodd" clip-rule="evenodd" d="M403.806 99.6748C405.113 99.6748 406.424 99.6748 407.73 99.6748C408.013 106.735 408.143 113.799 408.123 120.866C406.255 121.09 404.426 121.482 402.629 122.043C402.236 114.722 402.107 107.397 402.236 100.067C402.864 100.172 403.386 100.041 403.806 99.6748Z" fill="#D9532B"/>
<path opacity="0.963" fill-rule="evenodd" clip-rule="evenodd" d="M260.963 101.244C270.906 101.309 275.68 106.28 275.287 116.156C273.226 124.159 268.059 127.495 259.786 126.163C254.895 124.934 251.821 121.86 250.564 116.941C249.444 108.57 252.91 103.338 260.963 101.244Z" fill="#D9532B"/>
<path opacity="0.944" fill-rule="evenodd" clip-rule="evenodd" d="M381.047 103.598C382.486 103.598 383.924 103.598 385.363 103.598C385.429 115.895 385.363 128.191 385.167 140.486C383.534 141.316 381.768 141.708 379.869 141.663C379.804 129.628 379.869 117.594 380.066 105.56C380.197 104.774 380.524 104.12 381.047 103.598Z" fill="#D9532B"/>
<path opacity="0.947" fill-rule="evenodd" clip-rule="evenodd" d="M534.093 136.954C535.674 136.868 535.933 137.326 534.877 138.328C518.839 148.673 502.75 158.942 486.609 169.133C486.142 161.153 486.142 153.174 486.609 145.195C502.522 142.652 518.348 139.905 534.093 136.954Z" fill="#D9532B"/>
<path opacity="0.952" fill-rule="evenodd" clip-rule="evenodd" d="M179.339 139.309C180.417 139.186 181.463 139.317 182.478 139.701C182.291 140.085 182.03 140.412 181.693 140.682C165.867 150.959 149.908 160.966 133.817 170.703C133.817 162.854 133.817 155.006 133.817 147.157C149.083 144.783 164.257 142.167 179.339 139.309Z" fill="#D9532B"/>
</g>
</g>
<defs>
<filter id="filter0_d_226_63" x="-4" y="0" width="544.837" height="235.999" filterUnits="userSpaceOnUse" color-interpolation-filters="sRGB">
<feFlood flood-opacity="0" result="BackgroundImageFix"/>
<feColorMatrix in="SourceAlpha" type="matrix" values="0 0 0 0 0 0 0 0 0 0 0 0 0 0 0 0 0 0 127 0" result="hardAlpha"/>
<feOffset dy="4"/>
<feGaussianBlur stdDeviation="2"/>
<feComposite in2="hardAlpha" operator="out"/>
<feColorMatrix type="matrix" values="0 0 0 0 0 0 0 0 0 0 0 0 0 0 0 0 0 0 0.25 0"/>
<feBlend mode="normal" in2="BackgroundImageFix" result="effect1_dropShadow_226_63"/>
<feBlend mode="normal" in="SourceGraphic" in2="effect1_dropShadow_226_63" result="shape"/>
</filter>
<clipPath id="clip0_226_63">
<rect width="537" height="246" fill="white"/>
</clipPath>
</defs>
</svg>
